PathFileType	4	(X/Y/Z)	C:/Users/alexw/Dropbox/ABI/BIOMENG 771 Files/BIOMENG_771/KinematicsLab/Left.trc	
DataRate	CameraRate	NumFrames	NumMarkers	Units	OrigDataRate	OrigDataStartFrame	OrigNumFrames	
120.00	120.00	26	8	mm	120.00	1119	1491	
Frame#	Time	RAsis			LAsis			RPsis			LPsis			LThighSuperior			LThighInferior			LThighLateral			LPatella			
		X1	Y1	Z1	X2	Y2	Z2	X3	Y3	Z3	X4	Y4	Z4	X5	Y5	Z5	X6	Y6	Z6	X7	Y7	Z7	X8	Y8	Z8	

1119	9.317	-558.91290	110.09252	1010.99951	-288.71790	123.42320	1009.54761	-448.43344	328.35336	981.04016	-387.89523	331.93286	977.77966	-244.48076	84.55157	873.08911	-277.15970	-126.05656	743.38861	-319.54773	-63.43126	845.64264	-331.79736	-211.64841	689.76813 
1120	9.325	-558.86914	110.14684	1011.01733	-288.72116	122.76347	1009.15485	-447.80789	328.12268	980.96893	-387.31372	331.47183	977.62329	-243.90248	84.60168	872.08118	-274.69312	-124.37054	739.62531	-318.08426	-63.40055	842.19116	-328.47714	-209.65871	683.98431 
1121	9.333	-558.77179	110.27419	1010.93469	-288.87363	122.09624	1008.61963	-447.10681	327.92554	980.85840	-386.71552	331.09348	977.50323	-243.30830	84.62015	871.01215	-272.15829	-122.58582	735.49512	-316.40152	-63.10963	838.39874	-324.92816	-207.44698	677.84100 
1122	9.342	-558.60486	110.35714	1010.82379	-288.92532	121.31275	1008.07532	-446.47702	327.69275	980.77173	-386.06400	330.61865	977.36450	-242.46774	84.70961	869.69141	-269.27655	-120.88264	731.29694	-314.55859	-62.89582	834.22296	-321.25540	-204.94376	671.38788 
1123	9.350	-558.40424	110.37013	1010.61053	-288.89883	120.43235	1007.53931	-445.85703	327.41031	980.61884	-385.28006	329.99597	977.24487	-241.44931	84.69922	868.29565	-266.40363	-118.70208	726.45667	-312.49988	-62.56875	829.85480	-317.32394	-202.02187	664.61835 
1124	9.358	-558.17242	110.42557	1010.41339	-289.12323	119.56253	1007.02789	-445.20389	327.13028	980.36206	-384.60886	329.42484	977.15936	-240.51529	85.01729	866.62994	-263.28894	-116.37012	721.51788	-310.04291	-62.22128	825.38293	-313.05856	-198.99338	657.66339 
1125	9.367	-558.06262	110.51490	1010.35443	-289.06094	118.75632	1006.37048	-444.49677	326.74991	980.12122	-384.01727	328.84018	976.94757	-239.46826	85.30014	864.86963	-259.92651	-113.61208	716.10358	-307.54688	-61.55832	820.78632	-308.47815	-195.51109	650.41272 
1126	9.375	-558.00702	110.61983	1010.31390	-289.13840	117.96809	1005.84442	-443.74692	326.32462	979.81873	-383.21109	328.11499	976.77020	-239.03412	86.27219	862.41620	-256.43723	-110.56467	710.56213	-304.84528	-60.87483	816.37067	-304.14636	-191.15221	643.20685 
1127	9.383	-558.04126	110.73602	1010.27722	-289.20251	117.04263	1005.37244	-443.02899	325.95697	979.59351	-382.46194	327.43765	976.53412	-237.95509	87.15781	860.43677	-252.67221	-107.07759	704.70947	-301.87225	-59.94234	811.81860	-299.37454	-186.52548	635.71948 
1128	9.392	-557.97717	110.75974	1010.18665	-289.07178	116.09573	1004.77783	-442.04099	325.48642	979.26782	-381.56226	326.75131	976.24017	-236.71089	88.14189	858.60364	-248.85509	-103.24312	698.50427	-298.68112	-58.77446	806.85602	-295.16342	-181.43843	627.68390 
1129	9.400	-557.80359	110.71215	1010.01605	-288.93311	115.26242	1004.02112	-441.15692	324.98114	979.06842	-380.67996	325.99689	975.98535	-235.33710	89.00651	856.72955	-244.71477	-98.65807	691.98468	-295.10596	-57.42548	801.37842	-289.73804	-175.51698	619.68085 
1130	9.408	-557.63318	110.59110	1009.75433	-288.75879	114.25503	1003.13873	-440.26706	324.38055	978.78943	-379.79358	325.21133	975.74152	-233.80533	90.00833	854.69293	-240.54712	-93.79518	685.23071	-291.36682	-55.76258	795.32861	-284.48572	-169.25395	611.43390 
1131	9.417	-557.34436	110.34722	1009.35706	-288.47690	113.22530	1002.14624	-439.36392	323.80899	978.51996	-378.91367	324.45767	975.43268	-232.40369	91.19910	852.61859	-236.26625	-88.23089	678.12469	-287.42023	-53.75023	788.78650	-279.51807	-162.54384	602.99438 
1132	9.425	-557.06726	110.02995	1008.91522	-288.12476	112.21171	1001.02252	-438.63831	323.19144	978.20422	-378.14771	323.67111	975.15997	-230.69299	92.26835	850.35266	-232.06775	-82.36925	670.91589	-283.40417	-51.34076	782.06433	-274.05515	-155.43225	594.61304 
1133	9.433	-556.64246	109.57648	1008.34528	-287.78687	111.22027	999.92560	-437.81497	322.48898	977.78882	-377.36960	322.80997	974.85101	-229.20293	93.60450	848.01648	-227.87408	-76.01822	663.64722	-279.18396	-48.55314	775.08069	-268.85538	-147.61806	586.51691 
1134	9.442	-556.24121	109.14233	1007.80444	-287.26071	110.17430	998.78827	-437.14264	321.81635	977.33679	-376.74142	321.94598	974.44806	-227.60207	95.15450	845.43707	-223.60608	-69.09219	656.36548	-275.27704	-45.53665	768.27179	-263.88016	-139.53381	578.06573 
1135	9.450	-555.58429	108.48868	1007.10669	-286.68750	109.09277	997.55756	-436.43460	321.01935	976.73102	-375.98111	321.03348	973.95093	-226.01686	96.96193	842.56720	-219.30257	-62.05699	649.26208	-271.14880	-41.49018	761.56702	-258.72626	-130.79761	569.63354 
1136	9.458	-555.22797	107.29408	1006.42712	-286.01086	107.96209	996.60516	-435.64969	320.14868	975.94257	-375.37808	320.02301	973.32440	-224.35005	98.92778	839.48767	-215.11980	-54.62375	641.96960	-267.11185	-37.62161	755.02063	-253.29790	-121.88876	561.38629 
1137	9.467	-554.58270	106.40971	1005.58356	-285.22116	106.90564	995.52679	-435.06512	319.18271	975.06189	-374.68179	319.00397	972.62164	-222.45079	101.36975	836.21674	-210.43108	-46.43695	634.81262	-263.40250	-33.07685	748.25623	-247.81763	-112.41093	553.18103 
1138	9.475	-553.93677	105.46602	1004.62744	-284.46002	105.88760	994.43567	-434.33728	318.09875	974.03375	-374.18588	317.92142	971.78937	-220.47964	103.97644	833.09808	-206.05365	-37.93232	627.64905	-259.52756	-28.50549	741.55865	-242.27060	-102.14796	545.10022 
1139	9.483	-553.26282	104.28902	1003.86206	-283.65570	104.68876	993.40710	-433.74548	316.90158	972.86639	-373.61407	316.73920	970.75220	-218.37257	106.73148	830.00806	-201.71635	-28.86758	620.65192	-255.48238	-23.52548	734.83765	-236.80765	-91.59425	537.19684 
1140	9.492	-552.52228	103.13598	1002.95105	-282.71365	103.47253	992.29053	-433.00720	315.56082	971.76373	-372.95651	315.43671	969.65820	-216.35130	109.59818	827.10297	-197.31029	-19.44326	613.94250	-251.55927	-18.27115	728.30542	-231.32591	-80.52456	529.62354 
1141	9.500	-551.51782	101.77950	1002.24243	-281.60898	102.33095	991.07269	-432.13434	314.27832	970.44550	-372.20258	314.20169	968.50598	-214.37337	112.56342	824.38904	-192.72836	-9.31432	607.55548	-247.18028	-12.70284	721.84076	-225.81781	-69.31955	522.45679 
1142	9.508	-550.47461	100.19270	1001.50079	-280.60162	101.25824	989.64819	-431.35931	312.98730	969.27234	-371.50357	313.03842	967.23456	-212.36018	115.90735	821.80933	-188.41595	1.56091	601.51019	-242.88875	-6.74644	715.74536	-220.53311	-57.43050	516.06573 
1143	9.517	-549.42487	98.75143	1000.66937	-279.47095	100.11900	988.10266	-430.47876	311.55588	968.06866	-370.63849	311.86661	965.97467	-210.32748	119.15078	819.70331	-184.24843	12.78392	596.18231	-238.62473	-0.35375	710.26648	-215.48976	-45.60169	510.66394 
1144	9.525	-548.06488	97.13596	999.80322	-278.51111	99.21992	986.53906	-429.92355	310.31549	966.87488	-369.85767	310.92780	964.66980	-208.34802	122.91157	817.80267	-179.99373	24.34916	591.69098	-234.55498	6.32843	705.61462	-210.26669	-33.93441	506.35599 
